Coordinates
version=1
nRows=14
nColumns=24
inDegrees=yes

Units are S.I. units (second, meters, Newtons, ...)
Angles are in degrees.

endheader
time	pelvis_tilt	pelvis_list	pelvis_rotation	pelvis_tx	pelvis_ty	pelvis_tz	hip_flexion_r	hip_adduction_r	hip_rotation_r	knee_angle_r	ankle_angle_r	subtalar_angle_r	mtp_angle_r	hip_flexion_l	hip_adduction_l	hip_rotation_l	knee_angle_l	ankle_angle_l	subtalar_angle_l	mtp_angle_l	lumbar_extension	lumbar_bending	lumbar_rotation
      4.26000000	     -0.77367779	      0.97605937	     -3.54898431	     -1.52481498	      1.03137558	      0.17319045	    -20.23778806	      0.51849867	    -14.22739491	    -16.47668467	     -8.43232867	     -4.23145555	      0.00000000	     21.79439734	      2.86226769	     -4.15347347	     -6.59379049	     -2.59959647	    -11.20315950	      0.00000000	    -14.65503529	     -5.97793363	     14.69551243
      4.27000000	     -0.56868496	      1.74751564	     -3.56513180	     -1.50343257	      1.03081071	      0.17183359	    -19.65392688	     -1.02626283	    -15.78233973	    -19.34429545	    -12.13345602	     -4.73303844	      0.00000000	     21.72435873	      3.90187171	     -3.49579169	     -8.72338236	     -3.05902587	    -12.70903116	      0.00000000	    -14.28692155	     -6.61271313	     13.89222349
      4.28000000	     -0.43915427	      2.55189436	     -3.41178517	     -1.48232151	      1.03054124	      0.17030192	    -18.81828693	     -2.56896591	    -17.06549114	    -22.42662917	    -16.21536026	     -5.94822150	      0.00000000	     21.73957827	      5.04589039	     -2.78821668	    -10.94371907	     -2.96749718	    -14.13711283	      0.00000000	    -13.89788455	     -7.23988334	     12.80094914
      4.29000000	     -0.35923169	      3.40385427	     -3.16914466	     -1.46155801	      1.03061322	      0.16878630	    -17.72215689	     -4.10461939	    -17.84816171	    -25.76638902	    -20.37417009	     -7.89722181	      0.00000000	     21.73822863	      6.27448923	     -2.09643870	    -13.10070071	     -2.43208947	    -15.46200962	      0.00000000	    -13.52609576	     -7.91880471	     11.51142116
      4.30000000	     -0.31345678	      4.26714680	     -2.87437606	     -1.44125035	      1.03103323	      0.16739863	    -16.34086562	     -5.58152030	    -18.11518012	    -29.40178917	    -24.33490426	    -10.53526440	      0.00000000	     21.62847323	      7.51914985	     -1.50536450	    -15.02982290	     -1.43148668	    -16.43799313	      0.00000000	    -13.20995524	     -8.62054739	     10.12854426
      4.31000000	     -0.31384947	      5.16834990	     -2.62940943	     -1.42141734	      1.03175742	      0.16632426	    -14.63370605	     -7.02273224	    -17.83134306	    -33.31327309	    -27.88245187	    -13.82770679	      0.00000000	     21.34391799	      8.74930240	     -1.10074282	    -16.55144813	     -0.11172398	    -17.02423480	      0.00000000	    -12.92153327	     -9.40794241	      8.77599224
      4.32000000	     -0.37090328	      6.12772345	     -2.50474339	     -1.40204553	      1.03275152	      0.16565839	    -12.59003381	     -8.44655026	    -17.05744559	    -37.41906238	    -30.91216835	    -17.68172642	      0.00000000	     20.83798665	      9.94580413	     -0.93662963	    -17.51871058	      1.34022869	    -17.19716052	      0.00000000	    -12.62975283	    -10.31438867	      7.53422261
      4.33000000	     -0.48122637	      7.13743497	     -2.54539951	     -1.38306749	      1.03399296	      0.16541924	    -10.25525613	     -9.84365186	    -15.89242202	    -41.56249453	    -33.40746797	    -21.95945895	      0.00000000	     20.10213492	     11.08377197	     -1.04188278	    -17.89245656	      2.74412393	    -17.06888676	      0.00000000	    -12.31003422	    -11.32824925	      6.47075238
      4.34000000	     -0.62505227	      8.14314571	     -2.75707678	     -1.36436761	      1.03551494	      0.16557034	     -7.72208168	    -11.13023885	    -14.39500659	    -45.54044977	    -35.36168459	    -26.46381641	      0.00000000	     19.12748883	     12.12563374	     -1.34139533	    -17.69351564	      4.00768361	    -16.72726481	      0.00000000	    -11.94937352	    -12.37612765	      5.58360056
      4.35000000	     -0.77597328	      9.05201175	     -3.13151271	     -1.34586297	      1.03736373	      0.16605258	     -5.08922264	    -12.18569157	    -12.62473799	    -49.17598432	    -36.63227863	    -30.91253135	      0.00000000	     17.92574845	     13.00810270	     -1.74359105	    -17.00594146	      5.00653565	    -16.33696598	      0.00000000	    -11.55661045	    -13.33888245	      4.87519187
      4.36000000	     -0.91440054	      9.76145099	     -3.60804564	     -1.32748617	      1.03958198	      0.16673193	     -2.46265754	    -12.89356437	    -10.71344875	    -52.32905137	    -37.03002344	    -34.92177131	      0.00000000	     16.52039239	     13.67398496	     -2.11340453	    -15.94970777	      5.75932153	    -15.95941078	      0.00000000	    -11.14780477	    -14.07645642	      4.26289716
      4.37000000	     -1.02868756	     10.20027268	     -4.09616150	     -1.30923167	      1.04218171	      0.16744883	      0.06107203	    -13.18475285	     -8.81607633	    -54.91535228	    -36.41092248	    -38.19224108	      0.00000000	     14.94089403	     14.09283867	     -2.32153529	    -14.64751119	      6.26273951	    -15.64568427	      0.00000000	    -10.77006397	    -14.48242126	      3.63457769
      4.38000000	     -1.10805677	     10.34333010	     -4.53027814	     -1.29108070	      1.04516003	      0.16809786	      2.40255965	    -13.06387453	     -7.06997715	    -56.89705889	    -34.69013604	    -40.44825512	      0.00000000	     13.18860526	     14.26153491	     -2.26056111	    -13.15496921	      6.47874684	    -15.43328153	      0.00000000	    -10.45569075	    -14.52008537	      2.93916286
      4.39000000	     -1.34372137	     10.14741712	     -4.83431516	     -1.27316182	      1.04820438	      0.16859157	      4.74005644	    -12.47920606	     -5.51501240	    -58.31179728	    -32.44391592	    -42.00870064	      0.00000000	     11.53529551	     14.11308930	     -1.93771845	    -11.62180264	      6.54677749	    -15.38325562	      0.00000000	    -10.02545402	    -14.12212711	      2.12432665
